<?xml version="1.0" encoding="utf-8"?>
<!-- Generator: Adobe Illustrator 16.0.0, SVG Export Plug-In . SVG Version: 6.00 Build 0)  -->
<!DOCTYPE svg PUBLIC "-//W3C//DTD SVG 1.1//EN" "http://www.w3.org/Graphics/SVG/1.1/DTD/svg11.dtd">
<svg version="1.1" id="Capa_1" xmlns="http://www.w3.org/2000/svg" xmlns:xlink="http://www.w3.org/1999/xlink" x="0px" y="0px"
	 width="612px" height="489px" viewBox="0 -6 612 489" enable-background="new 0 -6 612 489" xml:space="preserve">
<g>
	<path d="M127.938,170.871c-28.54,0-51.759-23.219-51.759-51.758c0-28.541,23.219-51.76,51.759-51.76s51.759,23.219,51.759,51.76
		C179.697,147.652,156.478,170.871,127.938,170.871z M127.938,87.415c-17.477,0-31.696,14.219-31.696,31.696
		c0,17.477,14.219,31.695,31.696,31.695s31.696-14.218,31.696-31.695C159.633,101.634,145.415,87.415,127.938,87.415z"/>
	<path d="M127.938,167.871c-26.886,0-48.759-21.873-48.759-48.758s21.873-48.76,48.759-48.76c26.885,0,48.759,21.874,48.759,48.76
		S154.823,167.871,127.938,167.871z M127.938,84.415c-19.132,0-34.696,15.565-34.696,34.696c0,19.13,15.564,34.695,34.696,34.695
		c19.131,0,34.696-15.565,34.696-34.695C162.633,99.98,147.069,84.415,127.938,84.415z"/>
	<path d="M127.938,383.683c-28.54,0-51.759-23.219-51.759-51.759s23.219-51.759,51.759-51.759s51.759,23.219,51.759,51.759
		S156.478,383.683,127.938,383.683z M127.938,300.229c-17.477,0-31.696,14.219-31.696,31.695c0,17.478,14.219,31.696,31.696,31.696
		s31.696-14.219,31.696-31.696C159.633,314.447,145.415,300.229,127.938,300.229z"/>
	<path d="M127.938,380.683c-26.886,0-48.759-21.873-48.759-48.759s21.873-48.759,48.759-48.759
		c26.885,0,48.759,21.873,48.759,48.759S154.823,380.683,127.938,380.683z M127.938,297.229c-19.132,0-34.696,15.563-34.696,34.695
		s15.564,34.696,34.696,34.696c19.131,0,34.696-15.565,34.696-34.696S147.069,297.229,127.938,297.229z"/>
	<path d="M307.303,478.962c-5.532,0-10.032-4.5-10.032-10.032c0-61.233-17.1-119.114-48.149-162.998l-12.617-14.386l5.53,17.103
		l0.034,0.167c1.531,7.566,2.307,15.341,2.307,23.108c0,34.638-15.332,67.266-42.063,89.518l-8.239,6.857h69.914
		c5.532,0,10.032,4.5,10.032,10.031c0,5.53-4.5,10.03-10.032,10.03H127.938C63.733,448.36,11.5,396.127,11.5,331.924
		c0-43.226,23.814-82.685,62.148-102.979l6.475-3.428l-6.474-3.427C35.314,201.798,11.5,162.339,11.5,119.112
		C11.5,54.908,63.733,2.675,127.938,2.675h287.921c64.204,0,116.438,52.233,116.438,116.438c0,41.789-22.657,80.615-59.13,101.326
		l-6.818,3.872l7.215,3.068c28.883,12.283,55.53,34.236,77.06,63.486c35.097,47.686,54.426,110.924,54.428,178.065
		c0,5.532-4.501,10.032-10.032,10.032H307.303z M584.856,458.898l-0.175-4.045c-5.321-122.975-79.477-219.304-168.823-219.304
		H203.295l10.434,7.086c18.151,12.328,34.697,28.554,49.179,48.231c32.476,44.122,51.708,102.475,54.156,164.308l0.147,3.725
		H584.856z M127.938,235.549c-53.141,0-96.375,43.234-96.375,96.375c0,53.142,43.233,96.375,96.375,96.375
		c53.141,0,96.374-43.233,96.374-96.375C224.312,278.783,181.078,235.549,127.938,235.549z M415.857,215.486
		c53.142,0,96.375-43.233,96.375-96.375c0-53.141-43.233-96.375-96.375-96.375H194.071l8.24,6.859
		c26.732,22.25,42.063,54.877,42.063,89.516c0,34.639-15.332,67.266-42.064,89.515l-8.24,6.859H415.857z M127.938,22.738
		c-53.141,0-96.375,43.233-96.375,96.374s43.233,96.374,96.375,96.374c53.141,0,96.374-43.233,96.374-96.374
		S181.078,22.738,127.938,22.738z"/>
	<path d="M307.303,475.962c-3.877,0-7.032-3.155-7.032-7.032c0-61.91-17.328-120.458-48.791-164.858l-22.299-25.427l9.947,30.766
		c1.492,7.374,2.247,14.948,2.247,22.514c0,33.746-14.938,65.532-40.983,87.212l-14.614,12.163h78.208
		c3.877,0,7.032,3.154,7.032,7.031s-3.154,7.03-7.032,7.03H127.938c-62.55,0-113.438-50.888-113.438-113.437
		c0-42.111,23.203-80.555,60.552-100.327l11.483-6.08l-11.483-6.078C37.703,199.668,14.5,161.225,14.5,119.112
		c0-62.55,50.888-113.438,113.438-113.438h287.921c62.55,0,113.438,50.888,113.438,113.438c0,40.71-22.075,78.538-57.611,98.717
		l-12.094,6.867l12.798,5.442c28.389,12.072,54.605,33.685,75.817,62.503c34.72,47.174,53.842,109.778,53.844,176.287
		c0,3.877-3.155,7.032-7.032,7.032H307.303L307.303,475.962z M212.043,245.117c17.868,12.135,34.168,28.124,48.448,47.527
		c32.124,43.645,51.15,101.407,53.574,162.647l0.262,6.606h273.662l-0.311-7.175c-5.391-124.584-80.863-222.174-171.82-222.174
		H193.538L212.043,245.117z M127.938,232.549c-54.795,0-99.375,44.58-99.375,99.375c0,54.796,44.579,99.375,99.375,99.375
		c54.795,0,99.374-44.579,99.374-99.375C227.312,277.129,182.732,232.549,127.938,232.549z M200.392,31.902
		c26.045,21.678,40.983,53.466,40.983,87.21c0,33.746-14.938,65.532-40.983,87.209l-14.615,12.165h230.081
		c54.796,0,99.375-44.58,99.375-99.375c0-54.795-44.579-99.375-99.375-99.375h-230.08L200.392,31.902z M127.938,19.738
		c-54.795,0-99.375,44.579-99.375,99.374s44.579,99.374,99.375,99.374c54.795,0,99.374-44.579,99.374-99.374
		S182.732,19.738,127.938,19.738z"/>
	<path d="M239.334,291.745"/>
	<path d="M239.334,291.745"/>
	<path d="M801.565,305.258"/>
	<path d="M801.565,305.258"/>
</g>
</svg>
